User Type,Username,Date,Text
,KILLrelay,2011-05-26T00:49Z,seeeeed plz!
,Kuba83,2011-07-03T12:46Z,"it is unrated :)
Drag.Me.To.Hell.2009.BluRay.720p.Swesube-DarkLord2011.mkv
Format                           : Matroska
File size                        : 4.37 GiB
Duration                         : 1h 38mn
Overall bit rate                 : 6 333 Kbps
Encoded date                     : UTC 2011-04-30 07:50:36
Writing application              : mkvmerge v4.7.0 ('Just Like You Imagined') built on Apr 21 2011 01:13:14
Writing library                  : libebml v1.2.0 + libmatroska v1.1.0

Video
ID                               : 1
Format                           : AVC
Format/Info                      : Advanced Video Codec
Format profile                   : High@L4.1
Format settings, CABAC           : Yes
Format settings, ReFrames        : 8 frames
Muxing mode                      : Header stripping
Codec ID                         : V_MPEG4/ISO/AVC
Duration                         : 1h 38mn
Bit rate                         : 4 825 Kbps
Width                            : 1 280 pixels
Height                           : 534 pixels
Display aspect ratio             : 2.35:1
Frame rate                       : 23.976 fps
Color space                      : YUV
Chroma subsampling               : 4:2:0
Bit depth                        : 8 bits
Scan type                        : Progressive
Bits/(Pixel*Frame)               : 0.294
Stream size                      : 3.24 GiB (74%)
Writing library                  : x264 core 68 r1183M f21daff


Audio
ID                               : 2
Format                           : DTS
Format/Info                      : Digital Theater Systems
Muxing mode                      : Header stripping
Codec ID                         : A_DTS
Duration                         : 1h 38mn
Bit rate mode                    : Constant
Bit rate                         : 1 510 Kbps
Channel(s)                       : 6 channels
Channel positions                : Front: L C R, Side: L R, LFE
Sampling rate                    : 48.0 KHz
Bit depth                        : 24 bits
Compression mode                 : Lossy
Stream size                      : 1.04 GiB (24%)
Language                         : Swedish?!?!?!?!!?!??!

Audio is english 100%

good copy anyway"
